DBRep_DrawableShape

CASCADE Topology V3, (c) Open Cascade
Locations 0
Curve2ds 58
1 0 0 0 1 
1 4 0 0 -1 
1 0 0 0 1 
1 0 0 0 1 
1 4 0 0 1 
1 0 0 1 0 
7 0 0  7 8 2  0 0  0.22439947525640616 -6.163089599920414e-15  0.44879905575281204 0.11749753715198821  0.67319828816615312 0.35247465649301857  0.89759785763907607 0.69050642623546843  1.1219974504025179 1.102403983078921  1.3463968515384834 1.5512010494871629  1.570796326794897 1.9999999999999991 
 3.1415926535897931 8 4.7123889803846897 8
7 0 0  7 8 2  1.1102230246251565e-16 -5.5511151231257827e-16  0.22439947525640647 -6.8180467626705026e-15  0.44879905575281126 0.11749753715198889  0.67319828816615512 0.35247465649301529  0.89759785763907607 0.69050642623547587  1.1219974504025181 1.1024039830789165  1.346396851538483 1.5512010494871624  1.5707963267948968 1.9999999999999996 
 3.1415926535897931 8 4.7123889803846897 8
1 1.5707963267948966 0 0 1 
1 1.9999999999999993 0 0 1 
7 0 0  7 8 2  1.1102230246251565e-16 64  0.22439947525641818 63.999999999999993  0.44879905575244045 63.882502462851683  0.67319828816737337 63.647525343510395  0.89759785764268651 63.309493573773082  1.1219974504011536 62.897596016918499  1.3463968515384555 62.448798950512781  1.5707963267948966 62 
 0 8 1.5707963267948966 8
7 0 0  8 9 2  1.5707963267948966 -4.4408920985006262e-16  1.3744467859455345 -4.4408920985006262e-16  1.1780972450958074 0.088121551972478604  0.98174770424732505 0.26436390732028792  0.78539816339447521 0.5214824988443344  0.58904862254811408 0.84497347757676844  0.39269908169817319 1.2146017433634761  0.19634954084936207 1.6073009183012752  0 1.9999999999999993 
 0 9 1.5707963267948966 9
1 0 64 1 0 
1 80 0 0 1 
2 8 10 -1 0 0 1 3.2999999999999998
1 0 109.62553288533999 1 0 
2 72 10 -1 0 0 1 3.2999999999999998
1 0 109.62553288533999 1 0 
2 8 54 -1 0 0 1 3.2999999999999998
1 0 109.62553288533999 1 0 
2 40 32 -1 0 0 1 27.5
1 0 109.62553288533999 1 0 
2 72 54 -1 0 0 1 3.2999999999999998
1 0 109.62553288533999 1 0 
1 1.5707963267948966 0 0 1 
1 4 0 0 1 
1 1.5707963267948966 0 0 1 
1 4 0 0 -1 
1 1.5707963267948966 0 0 1 
1 0 1.9999999999999993 1 0 
7 0 0  7 8 2  5.5511151231257827e-16 80  0.22439947525641574 80.000000000000114  0.44879905575277834 79.88250246284764  0.67319828816524985 79.647525343506089  0.8975978576431427 79.309493573775327  1.1219974504009815 78.89759601691695  1.3463968515384392 78.448798950512696  1.5707963267948966 78 
 0 8 1.5707963267948966 8
7 0 0  8 9 2  1.5707963267948961 -4.4408920985006262e-16  1.374446785945534 -3.4790567516397313e-16  1.1780972450962712 0.088121551973140103  0.98174770424399604 0.26436390731714532  0.78539816339835222 0.521482498848581  0.58904862254501622 0.84497347757452557  0.3926990816988703 1.2146017433640977  0.19634954084936207 1.6073009183012759  0 2 
 0 9 1.5707963267948966 9
1 0 0 0 1 
1 0 62 1 0 
1 0 0 0 1 
1 78 0 0 1 
2 8 10 -1 0 0 1 3.2999999999999998
1 0 103.62553288533999 1 0 
2 72 10 -1 0 0 1 3.2999999999999998
1 0 103.62553288533999 1 0 
2 8 54 -1 0 0 1 3.2999999999999998
1 0 103.62553288533999 1 0 
2 40 32 -1 0 0 1 27.5
1 0 103.62553288533999 1 0 
2 72 54 -1 0 0 1 3.2999999999999998
1 0 103.62553288533999 1 0 
7 0 0  7 8 2  -6.0227136628060344e-16 77.999999999999901  0.22439947525622678 78.448798950513918  0.44879887639338212 78.897596016919579  0.67319846915160397 79.309493573777203  0.89759803862661658 79.647525343508093  1.1219972710425632 79.88250246285709  1.3463968515384745 79.999999999999432  1.5707963267948966 80.000000000000014 
 4.7123889803846897 8 6.2831853071795862 8
7 0 0  8 9 2  0 62  0.19634954084936207 62.392699081698723  0.39269908169909068 62.785398256545911  0.58904862254503498 63.155026522642608  0.78539816340042512 63.478517500737176  0.98174770424244295 63.735636092957094  1.178097245096464 63.911878447929851  1.3744467859455345 64  1.5707963267948966 64 
 4.7123889803846897 9 6.2831853071795862 9
1 6.2831853071795862 -0 0 1 
1 0 -0 0 1 
1 6.2831853071795862 -0 0 1 
1 0 -0 0 1 
1 6.2831853071795862 -0 0 1 
1 0 -0 0 1 
1 6.2831853071795862 -0 0 1 
1 0 -0 0 1 
1 6.2831853071795862 -0 0 1 
1 0 -0 0 1 
Curves 35
1 0 0 0 0 0 1 
1 -4.4408920985006262e-16 0 4 -0 1 0 
1 0 0 0 -0 1 0 
1 0 64 0 0 0 1 
1 80 0 0 0 0 1 
1 0 -4.4408920985006262e-16 4 1 0 -0 
1 0 0 0 1 0 -0 
8 3.1415926535897931 4.7123889803846897
3 1.9999999999999996 1.9999999999999996 4 -0.70710678118654746 0.70710678118654746 0 0.70710678118654746 0.70710678118654746 0 0 0 -1 2.8284271247461903 2
1 1.9999999999999993 0 6 -0 1 0 
8 0 1.5707963267948966
3 1.9999999999999996 62 4 0.70710678118654746 0.70710678118654746 0 -0.70710678118654746 0.70710678118654746 0 0 -0 1 2.8284271247461903 2
1 0 64 0 1 0 -0 
1 80 0 0 -0 1 0 
2 8 10 0 -0 0 -1 -1 0 0 0 1 -0 3.2999999999999998
2 72 10 0 -0 0 -1 -1 0 0 0 1 -0 3.2999999999999998
2 8 54 0 -0 0 -1 -1 0 0 0 1 -0 3.2999999999999998
2 40 32 0 -0 0 -1 -1 0 0 0 1 -0 27.5
2 72 54 0 -0 0 -1 -1 0 0 0 1 -0 3.2999999999999998
1 80 64 0 0 0 1 
1 0 64 4 1 0 -0 
1 80 0 4 -0 1 0 
1 0 1.9999999999999993 6 1 0 -0 
8 0 1.5707963267948966
3 78 1.9999999999999996 4 -0.70710678118654746 -0.70710678118654746 -0 0.70710678118654746 -0.70710678118654746 0 -0 0 1 2.8284271247461903 2
1 0 62 6 1 0 -0 
1 78 0 6 -0 1 0 
2 8 10 6 -0 0 -1 -1 0 0 0 1 -0 3.2999999999999998
2 72 10 6 -0 0 -1 -1 0 0 0 1 -0 3.2999999999999998
2 8 54 6 -0 0 -1 -1 0 0 0 1 -0 3.2999999999999998
2 40 32 6 -0 0 -1 -1 0 0 0 1 -0 27.5
2 72 54 6 -0 0 -1 -1 0 0 0 1 -0 3.2999999999999998
8 4.7123889803846897 6.2831853071795862
3 78 62 4 -0.70710678118654746 0.70710678118654746 0 0.70710678118654746 0.70710678118654746 0 0 0 -1 2.8284271247461903 2
1 4.7000000000000002 10 109.62553288533999 0 -0 -1 
1 68.700000000000003 9.9999999999999982 109.62553288533999 0 -0 -1 
1 4.7000000000000002 54 109.62553288533999 0 -0 -1 
1 12.5 31.999999999999993 109.62553288533999 0 -0 -1 
1 68.700000000000003 54 109.62553288533999 0 -0 -1 
Polygon3D 0
PolygonOnTriangulations 0
Surfaces 15
1 0 0 0 1 0 -0 0 0 1 0 -1 0 
2 1.9999999999999996 0 4 -0 1 0 -1 -0 0 0 0 1 2
1 0 0 0 0 0 1 1 0 -0 -0 1 0 
1 0 0 0 -0 1 0 0 0 1 1 0 -0 
2 0 1.9999999999999996 4 1 0 -0 0 -1 0 -0 0 1 2
1 0 0 6 0 0 1 1 0 -0 -0 1 0 
2 0 62 4 1 0 -0 0 0 1 -0 1 -0 2
2 8 10 109.62553288533999 -0 -0 -1 -1 0 0 0 1 -0 3.2999999999999998
2 72 10 109.62553288533999 -0 -0 -1 -1 0 0 0 1 -0 3.2999999999999998
2 8 54 109.62553288533999 -0 -0 -1 -1 0 0 0 1 -0 3.2999999999999998
2 40 32 109.62553288533999 -0 -0 -1 -1 0 0 0 1 -0 27.5
2 72 54 109.62553288533999 -0 -0 -1 -1 0 0 0 1 -0 3.2999999999999998
1 0 64 0 -0 1 0 0 0 1 1 0 -0 
1 80 0 0 1 0 -0 0 0 1 0 -1 0 
2 78 0 4 -0 1 0 0 0 1 1 0 -0 2
Triangulations 0

TShapes 100
Ve
2.78431114815677e-07
-4.44089209850063e-16 0 4
0 0

0101101
*
Ve
1e-07
0 0 0
0 0

0101101
*
Ed
 1e-07 1 1 0
1  1 0 0 4
0

0101000
-100 0 +99 0 *
Ve
1.96873195079662e-07
-4.44089209850063e-16 64 4
0 0

0101101
*
Ed
 1e-07 1 1 0
1  2 0 -0 64
2  1 2 0 -0 64
2  2 1 0 -0 64
4 G1 2 0 1 0
0

0101000
+100 0 -97 0 *
Ve
1e-07
0 64 0
0 0

0101101
*
Ed
 1e-07 1 1 0
1  3 0 0 64
2  3 3 0 0 64
0

0101000
-95 0 +99 0 *
Ed
 1e-07 1 1 0
1  4 0 0 4
0

0101000
-97 0 +95 0 *
Wi

0101100
-98 0 -96 0 +94 0 +93 0 *
Fa
0  1e-07 1 0

0101000
+92 0 *
Ve
1.96876499103495e-07
80 -4.44089209850063e-16 4
0 0

0101101
*
Ve
1e-07
80 0 0
0 0

0101101
*
Ed
 1e-07 1 1 0
1  5 0 0 4
0

0101000
-90 0 +89 0 *
Ed
 1e-07 1 1 0
1  6 0 0 80
2  4 5 0 0 80
2  5 4 0 0 80
4 G1 5 0 4 0
0

0101000
+100 0 -90 0 *
Ed
 1e-07 1 1 0
1  7 0 0 80
2  6 3 0 0 80
0

0101000
-89 0 +99 0 *
Wi

0101100
-88 0 +87 0 -86 0 +98 0 *
Fa
0  1e-07 4 0

0101000
+85 0 *
Ve
2.78431114815677e-07
2 2 6
0 0

0101101
*
Ed
 1.22522227663793e-07 1 1 0
1  8 0 3.14159265358979 4.71238898038469
2  7 2 0 3.14159265358979 4.71238898038469
2  8 5 0 3.14159265358979 4.71238898038469
0

0101000
+100 0 -83 0 *
Ve
1.96873195079662e-07
2 62 6
0 0

0101101
*
Ed
 1e-07 1 1 0
1  9 0 2 62
2  9 2 0 2 62
2  10 6 0 2 62
4 G1 2 0 6 0
0

0101000
+83 0 -81 0 *
Ed
 1.2252483313518e-07 1 1 0
1  10 0 0 1.5707963267949
2  11 2 0 0 1.5707963267949
2  12 7 0 0 1.5707963267949
0

0101000
+97 0 -81 0 *
Wi

0101100
+82 0 -96 0 +80 0 -79 0 *
Fa
0  0 2 0

0101000
+78 0 *
Ve
1e-07
80 64 0
0 0

0101101
*
Ed
 1e-07 1 1 0
1  11 0 0 80
2  13 3 0 0 80
0

0101000
-76 0 +95 0 *
Ed
 1e-07 1 1 0
1  12 0 0 64
2  14 3 0 0 64
0

0101000
-76 0 +89 0 *
Wi

0101100
-94 0 -75 0 +86 0 +74 0 *
Ve
1e-07
4.7 10 0
0 0

0101101
*
Ed
 1e-07 1 1 0
1  13 0 0 6.28318530717959
2  15 3 0 0 6.28318530717959
2  16 8 0 0 6.28318530717959
0

0101000
+72 0 -72 0 *
Wi

0101100
+71 0 *
Ve
1.00000001776357e-07
68.7 10 0
0 0

0101101
*
Ed
 1e-07 1 1 0
1  14 0 0 6.28318530717959
2  17 3 0 0 6.28318530717959
2  18 9 0 0 6.28318530717959
0

0101000
+69 0 -69 0 *
Wi

0101100
+68 0 *
Ve
1e-07
4.7 54 0
0 0

0101101
*
Ed
 1e-07 1 1 0
1  15 0 0 6.28318530717959
2  19 3 0 0 6.28318530717959
2  20 10 0 0 6.28318530717959
0

0101000
+66 0 -66 0 *
Wi

0101100
+65 0 *
Ve
1.00000007105427e-07
12.5 32 0
0 0

0101101
*
Ed
 1e-07 1 1 0
1  16 0 0 6.28318530717959
2  21 3 0 0 6.28318530717959
2  22 11 0 0 6.28318530717959
0

0101000
+63 0 -63 0 *
Wi

0101100
+62 0 *
Ve
1e-07
68.7 54 0
0 0

0101101
*
Ed
 1e-07 1 1 0
1  17 0 0 6.28318530717959
2  23 3 0 0 6.28318530717959
2  24 12 0 0 6.28318530717959
0

0101000
+60 0 -60 0 *
Wi

0101100
+59 0 *
Fa
0  1e-07 3 0

0101000
+73 0 +70 0 +67 0 +64 0 +61 0 +58 0 *
Ve
1.9686980579083e-07
80 64 4
0 0

0101101
*
Ed
 1e-07 1 1 0
1  18 0 0 4
0

0101000
-56 0 +76 0 *
Ed
 1e-07 1 1 0
1  19 0 0 80
2  25 7 0 0 80
2  26 13 0 0 80
4 G1 7 0 13 0
0

0101000
+97 0 -56 0 *
Wi

0101100
-55 0 +54 0 -75 0 +93 0 *
Fa
0  1e-07 13 0

0101000
+53 0 *
Ed
 1e-07 1 1 0
1  20 0 -0 64
2  27 15 0 -0 64
2  28 14 0 -0 64
4 G1 15 0 14 0
0

0101000
+90 0 -56 0 *
Wi

0101100
-88 0 -51 0 +74 0 +55 0 *
Fa
0  1e-07 14 0

0101000
+50 0 *
Ve
1.96876499103495e-07
78 2 6
0 0

0101101
*
Ed
 1e-07 1 1 0
1  21 0 2 78
2  29 5 0 2 78
2  30 6 0 2 78
4 G1 5 0 6 0
0

0101000
+83 0 -48 0 *
Ed
 1.22522744454262e-07 1 1 0
1  22 0 0 1.5707963267949
2  31 5 0 0 1.5707963267949
2  32 15 0 0 1.5707963267949
0

0101000
+90 0 -48 0 *
Wi

0101100
+82 0 -87 0 +47 0 -46 0 *
Fa
0  0 5 0

0101000
+45 0 *
Ve
1.9686980579083e-07
78 62 6
0 0

0101101
*
Ed
 1e-07 1 1 0
1  23 0 2 78
2  33 7 0 2 78
2  34 6 0 2 78
4 G1 7 0 6 0
0

0101000
+81 0 -43 0 *
Ed
 1e-07 1 1 0
1  24 0 2 62
2  35 15 0 2 62
2  36 6 0 2 62
4 G1 15 0 6 0
0

0101000
+48 0 -43 0 *
Wi

0101100
-80 0 +47 0 -42 0 +41 0 *
Ve
1e-07
4.7 10 6
0 0

0101101
*
Ed
 1e-07 1 1 0
1  25 0 0 6.28318530717959
2  37 6 0 0 6.28318530717959
2  38 8 0 0 6.28318530717959
0

0101000
+39 0 -39 0 *
Wi

0101100
+38 0 *
Ve
1.00000001776357e-07
68.7 10 6
0 0

0101101
*
Ed
 1e-07 1 1 0
1  26 0 0 6.28318530717959
2  39 6 0 0 6.28318530717959
2  40 9 0 0 6.28318530717959
0

0101000
+36 0 -36 0 *
Wi

0101100
+35 0 *
Ve
1e-07
4.7 54 6
0 0

0101101
*
Ed
 1e-07 1 1 0
1  27 0 0 6.28318530717959
2  41 6 0 0 6.28318530717959
2  42 10 0 0 6.28318530717959
0

0101000
+33 0 -33 0 *
Wi

0101100
+32 0 *
Ve
1.00000007105427e-07
12.5 32 6
0 0

0101101
*
Ed
 1e-07 1 1 0
1  28 0 0 6.28318530717959
2  43 6 0 0 6.28318530717959
2  44 11 0 0 6.28318530717959
0

0101000
+30 0 -30 0 *
Wi

0101100
+29 0 *
Ve
1e-07
68.7 54 6
0 0

0101101
*
Ed
 1e-07 1 1 0
1  29 0 0 6.28318530717959
2  45 6 0 0 6.28318530717959
2  46 12 0 0 6.28318530717959
0

0101000
+27 0 -27 0 *
Wi

0101100
+26 0 *
Fa
0  1e-07 6 0

0101000
+40 0 +37 0 +34 0 +31 0 +28 0 +25 0 *
Ed
 1.22526373549451e-07 1 1 0
1  30 0 4.71238898038469 6.28318530717959
2  47 7 0 4.71238898038469 6.28318530717959
2  48 15 0 4.71238898038469 6.28318530717959
0

0101000
+43 0 -56 0 *
Wi

0101100
-79 0 +54 0 -42 0 -23 0 *
Fa
0  0 7 0

0101000
+22 0 *
Ed
 1e-07 1 1 0
1  31 0 103.62553288534 109.62553288534
3  49 50CN 8 0 103.62553288534 109.62553288534
0

0101000
+39 0 -72 0 *
Wi

0101100
-71 0 +20 0 +38 0 -20 0 *
Fa
0  1e-07 8 0

0101000
+19 0 *
Ed
 1e-07 1 1 0
1  32 0 103.62553288534 109.62553288534
3  51 52CN 9 0 103.62553288534 109.62553288534
0

0101000
+36 0 -69 0 *
Wi

0101100
-68 0 +17 0 +35 0 -17 0 *
Fa
0  1e-07 9 0

0101000
+16 0 *
Ed
 1e-07 1 1 0
1  33 0 103.62553288534 109.62553288534
3  53 54CN 10 0 103.62553288534 109.62553288534
0

0101000
+33 0 -66 0 *
Wi

0101100
-65 0 +14 0 +32 0 -14 0 *
Fa
0  1e-07 10 0

0101000
+13 0 *
Ed
 1e-07 1 1 0
1  34 0 103.62553288534 109.62553288534
3  55 56CN 11 0 103.62553288534 109.62553288534
0

0101000
+30 0 -63 0 *
Wi

0101100
-62 0 +11 0 +29 0 -11 0 *
Fa
0  1e-07 11 0

0101000
+10 0 *
Ed
 1e-07 1 1 0
1  35 0 103.62553288534 109.62553288534
3  57 58CN 12 0 103.62553288534 109.62553288534
0

0101000
+27 0 -60 0 *
Wi

0101100
-59 0 +8 0 +26 0 -8 0 *
Fa
0  1e-07 12 0

0101000
+7 0 *
Wi

0101100
-46 0 +51 0 -41 0 -23 0 *
Fa
0  0 15 0

0101000
+5 0 *
Sh

0101100
-91 0 -84 0 +77 0 -57 0 +52 0 +49 0 -44 0 +24 0 -21 0 -18 0 
-15 0 -12 0 -9 0 -6 0 +4 0 *
So

0100000
+3 0 *
Co

1100000
+2 0 *

+1 0 