DBRep_DrawableShape

CASCADE Topology V3, (c) Open Cascade
Locations 0
Curve2ds 58
1 0 0 0 1 
1 2.0000000000000004 0 0 -1 
1 0 0 0 1 
1 0 0 0 1 
1 2.0000000000000004 0 0 1 
1 0 0 1 0 
7 0 0  7 8 2  0 -1.1102230246251565e-16  0.22439947525641438 -8.980995964488313e-15  0.44879905575278262 0.1174975371521203  0.67319828816623273 0.35247465649271187  0.89759785763912592 0.69050642623546554  1.1219974504025598 1.1024039830788277  1.346396851538497 1.5512010494871895  1.5707963267948968 1.9999999999999996 
 3.1415926535897931 8 4.7123889803846897 8
7 0 0  7 8 2  1.1102230246251565e-16 -3.3306690738754696e-16  0.22439947525640749 -8.8605887693523729e-15  0.44879905575280238 0.11749753715211861  0.67319828816620486 0.35247465649271659  0.89759785763914779 0.69050642623545977  1.1219974504025523 1.1024039830788317  1.346396851538497 1.5512010494871888  1.5707963267948968 1.9999999999999996 
 3.1415926535897931 8 4.7123889803846897 8
1 1.5707963267948966 0 0 1 
1 1.9999999999999993 0 0 1 
7 0 0  7 8 2  -2.2204460492503131e-16 64  0.2243994752564164 64.000000000000085  0.44879905575248302 63.882502462851512  0.67319828816727589 63.647525343510623  0.89759785764275701 63.309493573772826  1.1219974504011647 62.897596016918705  1.3463968515384415 62.44879895051271  1.5707963267948966 62 
 0 8 1.5707963267948966 8
7 0 0  8 9 2  1.5707963267948966 -4.4408920985006262e-16  1.3744467859455345 -4.4408920985006262e-16  1.1780972450960601 0.088121551972478604  0.98174770424449354 0.26436390732028792  0.78539816339619939 0.5214824988443344  0.58904862254623924 0.84497347757676844  0.39269908169885448 1.2146017433634761  0.19634954084936207 1.6073009183012752  0 1.9999999999999993 
 0 9 1.5707963267948966 9
1 0 64 1 0 
1 80 0 0 1 
2 8 10 -1 0 0 1 3.2999999999999998
1 0 107.52804494381037 1 0 
2 72 10 -1 0 0 1 3.2999999999999998
1 0 107.52804494381037 1 0 
2 8 54 -1 0 0 1 3.2999999999999998
1 0 107.52804494381037 1 0 
2 40 32 -1 0 0 1 27.5
1 0 107.52804494381037 1 0 
2 72 54 -1 0 0 1 3.2999999999999998
1 0 107.52804494381037 1 0 
1 1.5707963267948966 0 0 1 
1 2.0000000000000004 0 0 1 
1 1.5707963267948966 0 0 1 
1 2.0000000000000004 0 0 -1 
1 1.5707963267948966 0 0 1 
1 0 1.9999999999999993 1 0 
7 0 0  7 8 2  0 80  0.22439947525641626 80.000000000000512  0.44879905575267243 79.88250246284619  0.67319828816554705 79.647525343508491  0.89759785764282896 79.309493573772926  1.121997450401139 78.897596016918371  1.3463968515384264 78.448798950512298  1.5707963267948968 78 
 0 8 1.5707963267948966 8
7 0 0  8 9 2  1.5707963267948963 -4.4408920985006262e-16  1.3744467859455343 -3.4790567516397313e-16  1.1780972450960447 0.088121551973140103  0.98174770424678037 0.26436390731714532  0.7853981633961733 0.521482498848581  0.58904862254648338 0.84497347757452557  0.39269908169816292 1.2146017433640977  0.19634954084936207 1.6073009183012759  0 2 
 0 9 1.5707963267948966 9
1 0 0 0 1 
1 0 62 1 0 
1 0 0 0 1 
1 78 0 0 1 
2 8 10 -1 0 0 1 3.2999999999999998
1 0 103.52804494381037 1 0 
2 72 10 -1 0 0 1 3.2999999999999998
1 0 103.52804494381037 1 0 
2 8 54 -1 0 0 1 3.2999999999999998
1 0 103.52804494381037 1 0 
2 40 32 -1 0 0 1 27.5
1 0 103.52804494381037 1 0 
2 72 54 -1 0 0 1 3.2999999999999998
1 0 103.52804494381037 1 0 
7 0 0  7 8 2  -3.8022676135561118e-16 77.999999999999886  0.22439947525622428 78.448798950514075  0.44879887639338917 78.897596016919081  0.67319846915160819 79.309493573777928  0.89759803862672005 79.647525343507283  1.1219972710425024 79.882502462857317  1.3463968515384925 79.999999999999403  1.5707963267948966 80 
 4.7123889803846897 8 6.2831853071795862 8
7 0 0  8 9 2  0 62  0.19634954084936207 62.392699081698723  0.39269908169863593 62.785398256545911  0.58904862254685397 63.155026522642608  0.78539816339678714 63.478517500737176  0.98174770424517144 63.735636092957094  1.1780972450957818 63.911878447929851  1.3744467859455345 64  1.5707963267948966 64 
 4.7123889803846897 9 6.2831853071795862 9
1 6.2831853071795862 -0 0 1 
1 0 -0 0 1 
1 6.2831853071795862 -0 0 1 
1 0 -0 0 1 
1 6.2831853071795862 -0 0 1 
1 0 -0 0 1 
1 6.2831853071795862 -0 0 1 
1 0 -0 0 1 
1 6.2831853071795862 -0 0 1 
1 0 -0 0 1 
Curves 35
1 0 0 0 0 0 1 
1 -4.4408920985006262e-16 0 2.0000000000000004 -0 1 0 
1 0 0 0 -0 1 0 
1 0 64 0 0 0 1 
1 80 0 0 0 0 1 
1 0 -4.4408920985006262e-16 2.0000000000000004 1 0 -0 
1 0 0 0 1 0 -0 
8 3.1415926535897931 4.7123889803846897
3 1.9999999999999996 1.9999999999999996 2.0000000000000004 -0.70710678118654746 0.70710678118654746 0 0.70710678118654746 0.70710678118654746 0 0 0 -1 2.8284271247461903 2
1 1.9999999999999993 0 4 -0 1 0 
8 0 1.5707963267948966
3 1.9999999999999996 62 2.0000000000000004 0.70710678118654746 0.70710678118654746 0 -0.70710678118654746 0.70710678118654746 0 0 -0 1 2.8284271247461903 2
1 0 64 0 1 0 -0 
1 80 0 0 -0 1 0 
2 8 10 0 -0 0 -1 -1 0 0 0 1 -0 3.2999999999999998
2 72 10 0 -0 0 -1 -1 0 0 0 1 -0 3.2999999999999998
2 8 54 0 -0 0 -1 -1 0 0 0 1 -0 3.2999999999999998
2 40 32 0 -0 0 -1 -1 0 0 0 1 -0 27.5
2 72 54 0 -0 0 -1 -1 0 0 0 1 -0 3.2999999999999998
1 80 64 0 0 0 1 
1 0 64 2.0000000000000004 1 0 -0 
1 80 0 2.0000000000000004 -0 1 0 
1 0 1.9999999999999993 4 1 0 -0 
8 0 1.5707963267948966
3 78 1.9999999999999996 2.0000000000000004 -0.70710678118654746 -0.70710678118654746 -0 0.70710678118654746 -0.70710678118654746 0 -0 0 1 2.8284271247461903 2
1 0 62 4 1 0 -0 
1 78 0 4 -0 1 0 
2 8 10 4 -0 0 -1 -1 0 0 0 1 -0 3.2999999999999998
2 72 10 4 -0 0 -1 -1 0 0 0 1 -0 3.2999999999999998
2 8 54 4 -0 0 -1 -1 0 0 0 1 -0 3.2999999999999998
2 40 32 4 -0 0 -1 -1 0 0 0 1 -0 27.5
2 72 54 4 -0 0 -1 -1 0 0 0 1 -0 3.2999999999999998
8 4.7123889803846897 6.2831853071795862
3 78 62 2.0000000000000004 -0.70710678118654746 0.70710678118654746 0 0.70710678118654746 0.70710678118654746 0 0 0 -1 2.8284271247461903 2
1 4.7000000000000002 10 107.52804494381037 0 -0 -1 
1 68.700000000000003 9.9999999999999982 107.52804494381037 0 -0 -1 
1 4.7000000000000002 54 107.52804494381037 0 -0 -1 
1 12.5 31.999999999999993 107.52804494381037 0 -0 -1 
1 68.700000000000003 54 107.52804494381037 0 -0 -1 
Polygon3D 0
PolygonOnTriangulations 0
Surfaces 15
1 0 0 0 1 0 -0 0 0 1 0 -1 0 
2 1.9999999999999996 0 2.0000000000000004 -0 1 0 -1 -0 0 0 0 1 2
1 0 0 0 0 0 1 1 0 -0 -0 1 0 
1 0 0 0 -0 1 0 0 0 1 1 0 -0 
2 0 1.9999999999999996 2.0000000000000004 1 0 -0 0 -1 0 -0 0 1 2
1 0 0 4 0 0 1 1 0 -0 -0 1 0 
2 0 62 2.0000000000000004 1 0 -0 0 0 1 -0 1 -0 2
2 8 10 107.52804494381037 -0 -0 -1 -1 0 0 0 1 -0 3.2999999999999998
2 72 10 107.52804494381037 -0 -0 -1 -1 0 0 0 1 -0 3.2999999999999998
2 8 54 107.52804494381037 -0 -0 -1 -1 0 0 0 1 -0 3.2999999999999998
2 40 32 107.52804494381037 -0 -0 -1 -1 0 0 0 1 -0 27.5
2 72 54 107.52804494381037 -0 -0 -1 -1 0 0 0 1 -0 3.2999999999999998
1 0 64 0 -0 1 0 0 0 1 1 0 -0 
1 80 0 0 1 0 -0 0 0 1 0 -1 0 
2 78 0 2.0000000000000004 -0 1 0 0 0 1 1 0 -0 2
Triangulations 0

TShapes 100
Ve
2.78430832199034e-07
-4.44089209850063e-16 0 2
0 0

0101101
*
Ve
1e-07
0 0 0
0 0

0101101
*
Ed
 1e-07 1 1 0
1  1 0 0 2
0

0101000
-100 0 +99 0 *
Ve
1.96873195079661e-07
-4.44089209850063e-16 64 2
0 0

0101101
*
Ed
 1e-07 1 1 0
1  2 0 -0 64
2  1 2 0 -0 64
2  2 1 0 -0 64
4 G1 2 0 1 0
0

0101000
+100 0 -97 0 *
Ve
1e-07
0 64 0
0 0

0101101
*
Ed
 1e-07 1 1 0
1  3 0 0 64
2  3 3 0 0 64
0

0101000
-95 0 +99 0 *
Ed
 1e-07 1 1 0
1  4 0 0 2
0

0101000
-97 0 +95 0 *
Wi

0101100
-98 0 -96 0 +94 0 +93 0 *
Fa
0  1e-07 1 0

0101000
+92 0 *
Ve
1.96876499103547e-07
80 -4.44089209850063e-16 2
0 0

0101101
*
Ve
1e-07
80 0 0
0 0

0101101
*
Ed
 1e-07 1 1 0
1  5 0 0 2
0

0101000
-90 0 +89 0 *
Ed
 1e-07 1 1 0
1  6 0 0 80
2  4 5 0 0 80
2  5 4 0 0 80
4 G1 5 0 4 0
0

0101000
+100 0 -90 0 *
Ed
 1e-07 1 1 0
1  7 0 0 80
2  6 3 0 0 80
0

0101000
-89 0 +99 0 *
Wi

0101100
-88 0 +87 0 -86 0 +98 0 *
Fa
0  1e-07 4 0

0101000
+85 0 *
Ve
2.78430832199034e-07
2 2 4
0 0

0101101
*
Ed
 1.22522251820523e-07 1 1 0
1  8 0 3.14159265358979 4.71238898038469
2  7 2 0 3.14159265358979 4.71238898038469
2  8 5 0 3.14159265358979 4.71238898038469
0

0101000
+100 0 -83 0 *
Ve
1.96873195079661e-07
2 62 4
0 0

0101101
*
Ed
 1e-07 1 1 0
1  9 0 2 62
2  9 2 0 2 62
2  10 6 0 2 62
4 G1 2 0 6 0
0

0101000
+83 0 -81 0 *
Ed
 1.22524833054664e-07 1 1 0
1  10 0 0 1.5707963267949
2  11 2 0 0 1.5707963267949
2  12 7 0 0 1.5707963267949
0

0101000
+97 0 -81 0 *
Wi

0101100
+82 0 -96 0 +80 0 -79 0 *
Fa
0  0 2 0

0101000
+78 0 *
Ve
1e-07
80 64 0
0 0

0101101
*
Ed
 1e-07 1 1 0
1  11 0 0 80
2  13 3 0 0 80
0

0101000
-76 0 +95 0 *
Ed
 1e-07 1 1 0
1  12 0 0 64
2  14 3 0 0 64
0

0101000
-76 0 +89 0 *
Wi

0101100
-94 0 -75 0 +86 0 +74 0 *
Ve
1e-07
4.7 10 0
0 0

0101101
*
Ed
 1e-07 1 1 0
1  13 0 0 6.28318530717959
2  15 3 0 0 6.28318530717959
2  16 8 0 0 6.28318530717959
0

0101000
+72 0 -72 0 *
Wi

0101100
+71 0 *
Ve
1.00000001776357e-07
68.7 10 0
0 0

0101101
*
Ed
 1e-07 1 1 0
1  14 0 0 6.28318530717959
2  17 3 0 0 6.28318530717959
2  18 9 0 0 6.28318530717959
0

0101000
+69 0 -69 0 *
Wi

0101100
+68 0 *
Ve
1e-07
4.7 54 0
0 0

0101101
*
Ed
 1e-07 1 1 0
1  15 0 0 6.28318530717959
2  19 3 0 0 6.28318530717959
2  20 10 0 0 6.28318530717959
0

0101000
+66 0 -66 0 *
Wi

0101100
+65 0 *
Ve
1.00000007105427e-07
12.5 32 0
0 0

0101101
*
Ed
 1e-07 1 1 0
1  16 0 0 6.28318530717959
2  21 3 0 0 6.28318530717959
2  22 11 0 0 6.28318530717959
0

0101000
+63 0 -63 0 *
Wi

0101100
+62 0 *
Ve
1e-07
68.7 54 0
0 0

0101101
*
Ed
 1e-07 1 1 0
1  17 0 0 6.28318530717959
2  23 3 0 0 6.28318530717959
2  24 12 0 0 6.28318530717959
0

0101000
+60 0 -60 0 *
Wi

0101100
+59 0 *
Fa
0  1e-07 3 0

0101000
+73 0 +70 0 +67 0 +64 0 +61 0 +58 0 *
Ve
1.96869805790924e-07
80 64 2
0 0

0101101
*
Ed
 1e-07 1 1 0
1  18 0 0 2
0

0101000
-56 0 +76 0 *
Ed
 1e-07 1 1 0
1  19 0 0 80
2  25 7 0 0 80
2  26 13 0 0 80
4 G1 7 0 13 0
0

0101000
+97 0 -56 0 *
Wi

0101100
-55 0 +54 0 -75 0 +93 0 *
Fa
0  1e-07 13 0

0101000
+53 0 *
Ed
 1e-07 1 1 0
1  20 0 -0 64
2  27 15 0 -0 64
2  28 14 0 -0 64
4 G1 15 0 14 0
0

0101000
+90 0 -56 0 *
Wi

0101100
-88 0 -51 0 +74 0 +55 0 *
Fa
0  1e-07 14 0

0101000
+50 0 *
Ve
1.96876499103547e-07
78 2 4
0 0

0101101
*
Ed
 1e-07 1 1 0
1  21 0 2 78
2  29 5 0 2 78
2  30 6 0 2 78
4 G1 5 0 6 0
0

0101000
+83 0 -48 0 *
Ed
 1.22522715409084e-07 1 1 0
1  22 0 0 1.5707963267949
2  31 5 0 0 1.5707963267949
2  32 15 0 0 1.5707963267949
0

0101000
+90 0 -48 0 *
Wi

0101100
+82 0 -87 0 +47 0 -46 0 *
Fa
0  0 5 0

0101000
+45 0 *
Ve
1.96869805790924e-07
78 62 4
0 0

0101101
*
Ed
 1e-07 1 1 0
1  23 0 2 78
2  33 7 0 2 78
2  34 6 0 2 78
4 G1 7 0 6 0
0

0101000
+81 0 -43 0 *
Ed
 1e-07 1 1 0
1  24 0 2 62
2  35 15 0 2 62
2  36 6 0 2 62
4 G1 15 0 6 0
0

0101000
+48 0 -43 0 *
Wi

0101100
-80 0 +47 0 -42 0 +41 0 *
Ve
1e-07
4.7 10 4
0 0

0101101
*
Ed
 1e-07 1 1 0
1  25 0 0 6.28318530717959
2  37 6 0 0 6.28318530717959
2  38 8 0 0 6.28318530717959
0

0101000
+39 0 -39 0 *
Wi

0101100
+38 0 *
Ve
1.00000001776357e-07
68.7 10 4
0 0

0101101
*
Ed
 1e-07 1 1 0
1  26 0 0 6.28318530717959
2  39 6 0 0 6.28318530717959
2  40 9 0 0 6.28318530717959
0

0101000
+36 0 -36 0 *
Wi

0101100
+35 0 *
Ve
1e-07
4.7 54 4
0 0

0101101
*
Ed
 1e-07 1 1 0
1  27 0 0 6.28318530717959
2  41 6 0 0 6.28318530717959
2  42 10 0 0 6.28318530717959
0

0101000
+33 0 -33 0 *
Wi

0101100
+32 0 *
Ve
1.00000007105427e-07
12.5 32 4
0 0

0101101
*
Ed
 1e-07 1 1 0
1  28 0 0 6.28318530717959
2  43 6 0 0 6.28318530717959
2  44 11 0 0 6.28318530717959
0

0101000
+30 0 -30 0 *
Wi

0101100
+29 0 *
Ve
1e-07
68.7 54 4
0 0

0101101
*
Ed
 1e-07 1 1 0
1  29 0 0 6.28318530717959
2  45 6 0 0 6.28318530717959
2  46 12 0 0 6.28318530717959
0

0101000
+27 0 -27 0 *
Wi

0101100
+26 0 *
Fa
0  1e-07 6 0

0101000
+40 0 +37 0 +34 0 +31 0 +28 0 +25 0 *
Ed
 1.22526313014412e-07 1 1 0
1  30 0 4.71238898038469 6.28318530717959
2  47 7 0 4.71238898038469 6.28318530717959
2  48 15 0 4.71238898038469 6.28318530717959
0

0101000
+43 0 -56 0 *
Wi

0101100
-79 0 +54 0 -42 0 -23 0 *
Fa
0  0 7 0

0101000
+22 0 *
Ed
 1e-07 1 1 0
1  31 0 103.52804494381 107.52804494381
3  49 50CN 8 0 103.52804494381 107.52804494381
0

0101000
+39 0 -72 0 *
Wi

0101100
-71 0 +20 0 +38 0 -20 0 *
Fa
0  1e-07 8 0

0101000
+19 0 *
Ed
 1e-07 1 1 0
1  32 0 103.52804494381 107.52804494381
3  51 52CN 9 0 103.52804494381 107.52804494381
0

0101000
+36 0 -69 0 *
Wi

0101100
-68 0 +17 0 +35 0 -17 0 *
Fa
0  1e-07 9 0

0101000
+16 0 *
Ed
 1e-07 1 1 0
1  33 0 103.52804494381 107.52804494381
3  53 54CN 10 0 103.52804494381 107.52804494381
0

0101000
+33 0 -66 0 *
Wi

0101100
-65 0 +14 0 +32 0 -14 0 *
Fa
0  1e-07 10 0

0101000
+13 0 *
Ed
 1e-07 1 1 0
1  34 0 103.52804494381 107.52804494381
3  55 56CN 11 0 103.52804494381 107.52804494381
0

0101000
+30 0 -63 0 *
Wi

0101100
-62 0 +11 0 +29 0 -11 0 *
Fa
0  1e-07 11 0

0101000
+10 0 *
Ed
 1e-07 1 1 0
1  35 0 103.52804494381 107.52804494381
3  57 58CN 12 0 103.52804494381 107.52804494381
0

0101000
+27 0 -60 0 *
Wi

0101100
-59 0 +8 0 +26 0 -8 0 *
Fa
0  1e-07 12 0

0101000
+7 0 *
Wi

0101100
-46 0 +51 0 -41 0 -23 0 *
Fa
0  0 15 0

0101000
+5 0 *
Sh

0101100
-91 0 -84 0 +77 0 -57 0 +52 0 +49 0 -44 0 +24 0 -21 0 -18 0 
-15 0 -12 0 -9 0 -6 0 +4 0 *
So

0100000
+3 0 *
Co

1100000
+2 0 *

+1 0 